# xmcd
#
# Track frame offsets:
# 150
# 21575
# 37044
# 63216
# 76769
# 95782
# 130755
#
# Disc length: 1955 seconds
#
#
# Revision: 1
# Processed by: cddbd v1.5.2PL0 Copyright (c) Steve Scherf et al.
# Submitted via: HACP 1.20
#
DISCID=5707a107
DTITLE=Traffic Sound - Traffic Sound
DYEAR=1900
DGENRE=
TTITLE0=Tibet's Suzettes (You Can't Appreciate a Gift from God)
TTITLE1=The Days Have Gone
TTITLE2=Yesterday's Game
TTITLE3=America
TTITLE4=What You Need And What You Want
TTITLE5=Chicama Way
TTITLE6=You Got To Be Sure!
EXTD=
EXTT0=
EXTT1=
EXTT2=
EXTT3=
EXTT4=
EXTT5=
EXTT6=
PLAYORDER=
